<?xml version="1.0" encoding="UTF-8"?>
<svg width="58px" height="58px" viewBox="0 0 58 58" version="1.1" xmlns="http://www.w3.org/2000/svg" xmlns:xlink="http://www.w3.org/1999/xlink">
    <title>icon/AdminSVG</title>
    <g id="Import-Screen" stroke="none" stroke-width="1" fill="none" fill-rule="evenodd">
        <g id="Home" transform="translate(-733.000000, -500.000000)" fill="#242F35" fill-rule="nonzero">
            <path d="M736.285714,532.214286 L755.571429,532.214286 C757.339286,532.214286 758.785714,530.767857 758.785714,529 L758.785714,503.285714 C758.785714,501.517857 757.339286,500.071429 755.571429,500.071429 L736.285714,500.071429 C734.517857,500.071429 733.071429,501.517857 733.071429,503.285714 L733.071429,529 C733.071429,530.767857 734.517857,532.214286 736.285714,532.214286 Z M736.285714,557.928571 L755.571429,557.928571 C757.339286,557.928571 758.785714,556.482143 758.785714,554.714286 L758.785714,541.857143 C758.785714,540.089286 757.339286,538.642857 755.571429,538.642857 L736.285714,538.642857 C734.517857,538.642857 733.071429,540.089286 733.071429,541.857143 L733.071429,554.714286 C733.071429,556.482143 734.517857,557.928571 736.285714,557.928571 Z M768.428571,557.928571 L787.714286,557.928571 C789.482143,557.928571 790.928571,556.482143 790.928571,554.714286 L790.928571,529 C790.928571,527.232143 789.482143,525.785714 787.714286,525.785714 L768.428571,525.785714 C766.660714,525.785714 765.214286,527.232143 765.214286,529 L765.214286,554.714286 C765.214286,556.482143 766.660714,557.928571 768.428571,557.928571 Z M765.214286,503.285714 L765.214286,516.142857 C765.214286,517.910714 766.660714,519.357143 768.428571,519.357143 L787.714286,519.357143 C789.482143,519.357143 790.928571,517.910714 790.928571,516.142857 L790.928571,503.285714 C790.928571,501.517857 789.482143,500.071429 787.714286,500.071429 L768.428571,500.071429 C766.660714,500.071429 765.214286,501.517857 765.214286,503.285714 Z" id="icon/Admin"></path>
        </g>
    </g>
</svg>