<?xml version="1.0" encoding="UTF-8"?>
<svg width="67px" height="71px" viewBox="0 0 67 71" version="1.1" xmlns="http://www.w3.org/2000/svg" xmlns:xlink="http://www.w3.org/1999/xlink">
    <!-- Generator: Sketch 51 (57462) - http://www.bohemiancoding.com/sketch -->
    <title>BoxesLoadedIconSVG</title>
    <desc>Created with Sketch.</desc>
    <defs></defs>
    <g id="BoxesLoadedIcon" stroke="none" stroke-width="1" fill="none" fill-rule="evenodd">
        <g id="box-copy" transform="translate(1.372990, 1.960204)" fill="#FFFFFF" fill-rule="nonzero" stroke="#FFFFFF" stroke-width="2">
            <path d="M62.8057627,14.9144362 L32.1153275,0.0983549315 C31.8432342,-0.0328729905 31.5263861,-0.0328729905 31.2544248,0.0983549315 L0.5638576,14.9144362 C0.221661651,15.0795933 0.00422464135,15.4261459 0.00422464135,15.8060996 L0.00422464135,51.78803 C0.00422464135,52.1679837 0.221661651,52.5145363 0.5638576,52.6796934 L31.2542928,67.4957747 C31.3902734,67.5613886 31.5376078,67.5942616 31.6848101,67.5942616 C31.8320125,67.5942616 31.9792148,67.5613886 32.1153275,67.4957747 L62.8057627,52.6796934 C63.1479586,52.5145363 63.3653956,52.1679837 63.3653956,51.78803 L63.3653956,15.8062316 C63.3653956,15.4260139 63.1478266,15.0797253 62.8057627,14.9144362 Z M31.6848101,2.08961323 L60.0977676,15.8060996 L51.8614332,19.7822792 C51.8092853,19.7425412 51.7542329,19.7058396 51.6937677,19.6766632 L23.4738236,6.053515 L31.6848101,2.08961323 Z M21.2376681,7.17304495 L49.6093033,20.8695963 L43.7984411,23.6748901 L15.4385558,9.98388367 L21.2376681,7.17304495 Z M50.2731001,22.7479774 L50.2731001,33.1176237 L44.8453601,35.7379574 L44.8453601,25.3683112 L50.2731001,22.7479774 Z M61.385095,51.1667437 L32.6749605,65.0264718 L32.6749605,31.2435992 L39.5232361,27.9375533 C40.0156709,27.6997852 40.2221502,27.1079393 39.9843821,26.6153725 C39.746614,26.1230698 39.1547682,25.9163264 38.6622014,26.1542265 L31.6848101,29.5227179 L28.9393213,28.1972367 C28.4467546,27.9592045 27.8549087,28.1659479 27.6171406,28.6583827 C27.3793725,29.1508174 27.5858519,29.7427953 28.0782866,29.9805634 L30.6946598,31.2435992 L30.6946598,65.0264718 L1.98452527,51.1664797 L1.98452527,17.383607 L23.8470443,27.9379493 C23.9857973,28.0050155 24.1324716,28.0367003 24.2767695,28.0367003 C24.6448414,28.0367003 24.9983911,27.830485 25.169093,27.4768033 C25.4068611,26.9843686 25.2003817,26.3923907 24.707947,26.1546226 L3.27185271,15.8060996 L13.108006,11.0576027 L42.8513293,25.4164985 C42.855686,25.4225715 42.8605707,25.4279843 42.8650594,25.4339252 L42.8650594,37.315597 C42.8650594,37.6563407 43.04025,37.9730568 43.3288458,38.1543203 C43.4891182,38.2549196 43.6719659,38.3057473 43.8553418,38.3057473 C44.0021481,38.3057473 44.1493504,38.2731383 44.2857271,38.2072603 L51.6937677,34.6309694 C52.0359637,34.4658123 52.2534007,34.1193917 52.2534007,33.739306 L52.2534007,21.7921523 L61.385095,17.3837391 L61.385095,51.1667437 Z" id="Shape"></path>
            <path d="M10.1557738,47.3264127 L5.65191003,45.1521746 C5.15921123,44.9141425 4.5674974,45.1208859 4.3297293,45.6133206 C4.09196121,46.1057554 4.29844055,46.6977333 4.79087531,46.9355014 L9.29473905,49.1097394 C9.43349212,49.1768056 9.58016638,49.2084904 9.72446429,49.2084904 C10.0925362,49.2084904 10.4460858,49.0022751 10.6167878,48.6485934 C10.8546879,48.1560267 10.6482085,47.5643128 10.1557738,47.3264127 Z" id="Shape"></path>
            <path d="M14.300807,44.6283191 L5.65811497,40.4559577 C5.16554819,40.2181896 4.57370234,40.4246689 4.33593425,40.9172357 C4.09829817,41.4096705 4.30477752,42.0016484 4.79721227,42.2394164 L13.4399043,46.4117779 C13.5786574,46.478712 13.7253317,46.5105289 13.8696296,46.5105289 C14.2377015,46.5105289 14.5912511,46.3043135 14.761953,45.9506319 C14.9997211,45.4579331 14.7932418,44.8659552 14.300807,44.6283191 Z" id="Shape"></path>
        </g>
    </g>
</svg>