<?xml version="1.0" encoding="UTF-8"?>
<svg width="78px" height="54px" viewBox="0 0 78 54" version="1.1" xmlns="http://www.w3.org/2000/svg" xmlns:xlink="http://www.w3.org/1999/xlink">
    <title>icon/DispatchSVG</title>
    <g id="Import-Screen" stroke="none" stroke-width="1" fill="none" fill-rule="evenodd">
        <g id="Home" transform="translate(-723.000000, -704.000000)" fill="#242F35" fill-rule="nonzero" stroke="#242F35" stroke-width="0.8">
            <path d="M786.062222,743 C784.195556,743 782.422222,743.731111 781.084444,745.053333 C779.746667,746.391111 779,748.133333 779,750 C779,751.866667 779.731111,753.608889 781.084444,754.946667 C782.437778,756.268889 784.195556,757 786.062222,757 C789.888889,757 793,753.857778 793,750 C793,746.142222 789.888889,743 786.062222,743 Z M786.064,754 C783.856,754 782,752.176 782,750 C782,747.824 783.856,746 786.064,746 C788.24,746 790,747.792 790,750 C790,752.208 788.24,754 786.064,754 Z M788.729783,719.407843 C788.445759,719.141176 788.067061,719 787.672584,719 L779.577909,719 C778.710059,719 778,719.705882 778,720.568627 L778,733.431373 C778,734.294118 778.710059,735 779.577909,735 L792.422091,735 C793.289941,735 794,734.294118 794,733.431373 L794,724.819608 C794,724.380392 793.810651,723.956863 793.47929,723.658824 L788.729783,719.407843 Z M791,732 L781,732 L781,722 L787.091205,722 L791,725.478261 L791,732 Z M749.062222,743 C747.195556,743 745.422222,743.731111 744.084444,745.053333 C742.746667,746.391111 742,748.133333 742,750 C742,751.866667 742.731111,753.608889 744.084444,754.946667 C745.437778,756.268889 747.195556,757 749.062222,757 C752.888889,757 756,753.857778 756,750 C756,746.142222 752.888889,743 749.062222,743 Z M749.064,754 C746.856,754 745,752.176 745,750 C745,747.824 746.856,746 749.064,746 C751.24,746 753,747.792 753,750 C753,752.208 751.24,754 749.064,754 Z M738.403194,744.819788 L735.193613,744.819788 L735.193613,740.590106 C735.193613,739.715548 734.47505,739 733.596806,739 C732.718563,739 732,739.715548 732,740.590106 L732,746.409894 C732,747.284452 732.718563,748 733.596806,748 L738.403194,748 C739.281437,748 740,747.284452 740,746.409894 C740,745.535336 739.281437,744.819788 738.403194,744.819788 Z M746,736.5 C746,735.675 745.299363,735 744.443029,735 L725.556971,735 C724.700637,735 724,735.675 724,736.5 C724,737.325 724.700637,738 725.556971,738 L744.443029,738 C745.299363,738 746,737.34 746,736.5 Z M728.54162,730.898551 L747.427241,731 C748.283555,731 748.984176,730.362319 748.999745,729.565217 C749.015315,728.753623 748.314694,728.101449 747.45838,728.101449 L728.572759,728 C728.55719,728 728.55719,728 728.55719,728 C727.700875,728 727.000255,728.637681 727.000255,729.434783 C726.984685,730.246377 727.685306,730.898551 728.54162,730.898551 Z M732.556971,724 L751.443029,724 C752.299363,724 753,723.325 753,722.5 C753,721.675 752.299363,721 751.443029,721 L732.556971,721 C731.700637,721 731,721.675 731,722.5 C731,723.325 731.700637,724 732.556971,724 Z M799.428961,721.697221 L799.428961,721.697221 L788.378575,712.495128 C788.100772,712.26236 787.761235,712.138217 787.390831,712.138217 L774.395824,712.138217 L774.395824,706.551786 C774.395824,705.698304 773.701316,705 772.852474,705 L733.54335,705 C732.694507,705 732,705.698304 732,706.551786 L732,717.910863 C732,718.764345 732.694507,719.462649 733.54335,719.462649 C734.392192,719.462649 735.0867,718.764345 735.0867,717.910863 L735.0867,708.103573 L771.324557,708.103573 L771.324557,744.896427 L758.669088,744.896427 C757.820245,744.896427 757.125738,745.594731 757.125738,746.448214 C757.125738,747.301696 757.820245,748 758.669088,748 L777.513391,748 C778.362233,748 779.056741,747.301696 779.056741,746.448214 C779.056741,745.594731 778.362233,744.896427 777.513391,744.896427 L774.411257,744.896427 L774.411257,715.24179 L786.850658,715.24179 L796.9133,723.621436 L796.805266,744.865392 L795.200182,744.865392 C794.351339,744.865392 793.656832,745.563695 793.656832,746.417178 C793.656832,747.27066 794.351339,747.968964 795.200182,747.968964 L798.333182,747.968964 C799.182025,747.968964 799.876532,747.286178 799.876532,746.432696 L800,722.907615 C799.984567,722.426561 799.783931,721.992061 799.428961,721.697221 Z" id="icon/Dispatch" transform="translate(762.000000, 731.000000) scale(-1, 1) translate(-762.000000, -731.000000) "></path>
        </g>
    </g>
</svg>