<?xml version="1.0" encoding="UTF-8"?>
<svg width="65px" height="53px" viewBox="0 0 65 53" version="1.1" xmlns="http://www.w3.org/2000/svg" xmlns:xlink="http://www.w3.org/1999/xlink">
    <title>icon/DropFIle</title>
    <g id="Import-Screen" stroke="none" stroke-width="1" fill="none" fill-rule="evenodd">
        <g id="Home" transform="translate(-320.000000, -357.000000)" fill="#6E7B87" fill-rule="nonzero">
            <path d="M353.534091,394.247222 L361.777273,386.032222 C362.693182,385.119444 362.043182,383.529444 360.743182,383.529444 L355.454545,383.529444 L355.454545,359.944444 C355.454545,358.325 354.125,357 352.5,357 C350.875,357 349.545455,358.325 349.545455,359.944444 L349.545455,383.5 L344.256818,383.5 C342.927273,383.5 342.277273,385.09 343.222727,386.002778 L351.465909,394.217778 C352.027273,394.806667 352.972727,394.806667 353.534091,394.247222 L353.534091,394.247222 Z M379.090909,357 L364.288636,357 C362.693182,357 361.363636,358.325 361.363636,359.915 C361.363636,361.534444 362.693182,362.83 364.288636,362.83 L376.136364,362.83 C377.761364,362.83 379.090909,364.155 379.090909,365.774444 L379.090909,401.196111 C379.090909,402.815556 377.761364,404.140556 376.136364,404.140556 L328.863636,404.140556 C327.238636,404.140556 325.909091,402.815556 325.909091,401.196111 L325.909091,365.803889 C325.909091,364.184444 327.238636,362.859444 328.863636,362.859444 L340.711364,362.859444 C342.306818,362.859444 343.636364,361.534444 343.636364,359.944444 C343.636364,358.325 342.306818,357 340.711364,357 L325.909091,357 C322.659091,357 320,359.65 320,362.888889 L320,404.111111 C320,407.35 322.659091,410 325.909091,410 L379.090909,410 C382.340909,410 385,407.35 385,404.111111 L385,362.888889 C385,359.65 382.340909,357 379.090909,357 Z" id="icon/DropFIle"></path>
        </g>
    </g>
</svg>