<?xml version="1.0" encoding="UTF-8"?>
<svg width="34px" height="40px" viewBox="0 0 34 40" version="1.1" xmlns="http://www.w3.org/2000/svg" xmlns:xlink="http://www.w3.org/1999/xlink">
    <title>icon/Notifications</title>
    <g id="Import-Screen" stroke="none" stroke-width="1" fill="none" fill-rule="evenodd">
        <g id="Home" transform="translate(-1838.000000, -30.000000)" fill="#37454B" fill-rule="nonzero">
            <g id="icon/Notifications" transform="translate(1838.212804, 30.824324)">
                <path d="M28.9428645,16.4074064 C28.9428645,10.5080467 24.9465241,5.75049852 19.4277682,4.41838503 L19.4277682,3.08627155 C19.4277682,1.56385614 18.0956547,0.231742654 16.5732393,0.231742654 C15.0508239,0.231742654 13.7187104,1.56385614 13.7187104,3.08627155 L13.7187104,4.41838503 C8.19995454,5.75049852 4.20361408,10.5080467 4.20361408,16.4074064 L4.20361408,26.8740123 L0.397575555,30.6800509 L0.397575555,32.5830701 L32.748903,32.5830701 L32.748903,30.6800509 L28.9428645,26.8740123 L28.9428645,16.4074064 Z M16.5732393,38.2921279 C16.7635412,38.2921279 17.1441451,38.2921279 17.334447,38.2921279 C18.6665605,38.101826 19.6180701,37.1503164 19.998674,36.0085048 C20.1889759,35.6278263 20.3792778,35.0569952 20.3792778,34.4860894 L12.7672008,34.4860894 C12.7672008,36.5794106 14.4799181,38.2921279 16.5732393,38.2921279 Z" id="Shape"></path>
            </g>
        </g>
    </g>
</svg>