<?xml version="1.0" encoding="UTF-8"?>
<svg width="63px" height="61px" viewBox="0 0 63 61" version="1.1" xmlns="http://www.w3.org/2000/svg" xmlns:xlink="http://www.w3.org/1999/xlink">
    <title>icon/PastOrdersSVG</title>
    <g id="Import-Screen" stroke="none" stroke-width="1" fill="none" fill-rule="evenodd">
        <g id="Home" transform="translate(-1339.000000, -298.000000)" fill="#242F35" fill-rule="nonzero">
            <path d="M1372.075,298 C1361.05,298 1351.285,304.1 1346.245,313.410526 L1339,306.026316 L1339,326.894737 L1359.475,326.894737 L1350.655,317.905263 C1354.75,309.878947 1362.625,304.421053 1372.075,304.421053 C1384.99,304.421053 1395.7,315.336842 1395.7,328.5 C1395.7,341.663158 1384.99,352.578947 1372.075,352.578947 C1361.68,352.578947 1353.175,345.836842 1349.71,336.526316 L1343.095,336.526316 C1346.56,349.368421 1358.215,359 1372.075,359 C1388.77,359 1402,345.194737 1402,328.5 C1402,311.805263 1388.455,298 1372.075,298 Z M1368,330.065978 L1380.39101,337.641163 C1381.50649,338.323107 1382.9636,337.971655 1383.64554,336.856174 C1383.64905,336.850428 1383.65254,336.844667 1383.656,336.838891 C1384.33648,335.704162 1383.9775,334.23317 1382.85082,333.539457 L1372.60471,327.230806 L1372.60471,327.230806 L1372.60471,316.302354 C1372.60471,315.030799 1371.57391,314 1370.30235,314 C1369.0308,314 1368,315.030799 1368,316.302354 L1368,330.065978 L1368,330.065978 Z" id="icon/PastOrders"></path>
        </g>
    </g>
</svg>