<?xml version="1.0" encoding="UTF-8"?>
<svg width="60px" height="39px" viewBox="0 0 60 39" version="1.1" xmlns="http://www.w3.org/2000/svg" xmlns:xlink="http://www.w3.org/1999/xlink">
    <title>icon/ReportsSVG</title>
    <g id="Import-Screen" stroke="none" stroke-width="1" fill="none" fill-rule="evenodd">
        <g id="Home" transform="translate(-732.000000, -308.000000)" fill="#242F35" fill-rule="nonzero">
            <path d="M791.059837,311.758989 L790.873102,311.582348 C789.659327,310.434182 787.66749,310.493062 786.547082,311.700109 L779.762388,318.912946 C773.382286,312.112271 764.512388,307.990649 754.490959,307.990649 C746.710347,307.990649 739.458816,310.551943 733.483306,314.761885 C732.020551,315.79229 731.864939,317.823661 733.140959,319.030707 L733.327694,319.207348 C734.354735,320.178873 736.004225,320.355514 737.155755,319.53119 C742.104225,315.998371 748.048612,313.87868 754.490959,313.87868 C763.01851,313.87868 770.332286,317.588139 775.560857,323.41729 L766.597592,332.9559 L756.358306,323.270089 C755.776841,322.718815 754.987417,322.409007 754.164174,322.409007 C753.34093,322.409007 752.551506,322.718815 751.970041,323.270089 L732.923102,341.316904 C731.771571,342.40619 731.771571,344.202039 732.923102,345.291325 L733.389939,345.732927 C734.541469,346.822213 736.439939,346.822213 737.591469,345.732927 L754.148612,330.041325 L764.263408,339.609375 C765.539429,340.816421 767.59351,340.757541 768.776163,339.491614 L779.202184,328.422116 C781.131776,331.719414 782.563408,335.458313 783.310347,339.403294 C783.559327,340.786981 784.773102,341.817387 786.26698,341.817387 L786.547082,341.817387 C788.414429,341.817387 789.814939,340.198178 789.472592,338.461209 C788.476674,333.01478 786.422592,328.039394 783.590449,323.741132 L791.184327,315.645089 C792.24249,314.526363 792.180245,312.818834 791.059837,311.758989 Z" id="icon/Reports"></path>
        </g>
    </g>
</svg>