<?xml version="1.0" encoding="UTF-8"?>
<svg width="63px" height="63px" viewBox="0 0 63 63" version="1.1" xmlns="http://www.w3.org/2000/svg" xmlns:xlink="http://www.w3.org/1999/xlink">
    <title>icon/UsersSVG</title>
    <g id="Import-Screen" stroke="none" stroke-width="1" fill="none" fill-rule="evenodd">
        <g id="Home" transform="translate(-1339.000000, -498.000000)" fill="#242F35" fill-rule="nonzero">
            <path d="M1370.5,498 C1353.112,498 1339,512.112 1339,529.5 C1339,546.888 1353.112,561 1370.5,561 C1387.888,561 1402,546.888 1402,529.5 C1402,512.112 1387.888,498 1370.5,498 Z M1370.5,507.45 C1375.729,507.45 1379.95,511.671 1379.95,516.9 C1379.95,522.129 1375.729,526.35 1370.5,526.35 C1365.271,526.35 1361.05,522.129 1361.05,516.9 C1361.05,511.671 1365.271,507.45 1370.5,507.45 Z M1370.5,552.18 C1362.625,552.18 1355.6635,548.148 1351.6,542.037 C1351.6945,535.7685 1364.2,532.335 1370.5,532.335 C1376.7685,532.335 1389.3055,535.7685 1389.4,542.037 C1385.3365,548.148 1378.375,552.18 1370.5,552.18 Z" id="icon/Users"></path>
        </g>
    </g>
</svg>