<?xml version="1.0" encoding="UTF-8"?>
<svg width="70px" height="70px" viewBox="0 0 70 70" version="1.1" xmlns="http://www.w3.org/2000/svg" xmlns:xlink="http://www.w3.org/1999/xlink">
    <!-- Generator: Sketch 51 (57462) - http://www.bohemiancoding.com/sketch -->
    <title>WeightIconSVG</title>
    <desc>Created with Sketch.</desc>
    <defs></defs>
    <g id="WeightIcon" stroke="none" stroke-width="1" fill="none" fill-rule="evenodd">
        <g id="dumbbell-3-copy" transform="translate(0.914978, 0.460204)" fill="#FFFFFF" fill-rule="nonzero">
            <path d="M67.0240394,20.9547883 L61.3832111,15.31396 L65.623625,11.075145 C65.9985433,10.7006264 66.2093182,10.1931411 66.2093182,9.6623399 C66.2093182,9.13153873 65.9985433,8.62405338 65.6237582,8.24940155 L59.946424,2.5720674 C59.1969871,1.82263051 57.869851,1.82263051 57.1204141,2.5720674 L52.8815991,6.81248123 L47.2399714,1.17058711 C45.6791442,-0.390240114 43.1483791,-0.390240114 41.5874187,1.17058711 C40.026325,2.73141433 40.026325,5.26217943 41.5874187,6.82313989 L61.3713534,26.6073411 C62.9324471,28.1681683 65.4632122,28.1681683 67.0240394,26.6073411 C68.5848666,25.0465138 68.5848666,22.5157488 67.0240394,20.9547883 Z" id="Shape"></path>
            <path d="M26.6279922,61.3920045 L6.8440575,41.6078033 C5.28296381,40.0469761 2.75246518,40.0469761 1.19137149,41.6078033 C-0.369455731,43.168897 -0.369455731,45.6996621 1.19137149,47.2604893 L6.83313238,52.9022502 L2.60097901,57.1326716 C2.22619395,57.5074566 2.01541898,58.0148087 2.01541898,58.5456099 C2.01541898,59.0764111 2.22619395,59.5838964 2.60097901,59.9585483 L8.27831316,65.6340171 C8.66855328,66.0245237 9.17990239,66.2197104 9.69125151,66.2197104 C10.2026006,66.2197104 10.7139497,66.0245237 11.1041899,65.6341504 L15.3346112,61.403729 L20.9754394,67.0446905 C22.5362667,68.6055178 25.0670318,68.6055178 26.6279922,67.0446905 C28.1890859,65.4835968 28.1890859,62.9528317 26.6279922,61.3920045 Z" id="Shape"></path>
            <polygon id="Shape" points="35.9347326 23.7810647 23.8017158 35.9553838 32.2806782 44.4343462 44.413695 32.2597606"></polygon>
            <path d="M61.3714866,32.2598938 L35.9347326,6.82313989 C34.3739054,5.26231266 31.8430071,5.26231266 30.2821799,6.82313989 C28.7210862,8.38423358 28.7210862,10.9147322 30.2821799,12.4758259 L55.7189338,37.9125799 C57.279761,39.4734071 59.8105261,39.4734071 61.3714866,37.9125799 C62.9325803,36.3517526 62.9325803,33.8209875 61.3714866,32.2598938 Z" id="Shape"></path>
            <path d="M37.9333642,55.7394517 L12.496477,30.3025645 C10.9356498,28.7417373 8.40488473,28.7417373 6.8440575,30.3025645 C5.28296381,31.8636582 5.28296381,34.3944233 6.8440575,35.9552506 L32.2808115,61.3920045 C33.8416387,62.9528317 36.3724038,62.9528317 37.9333642,61.3920045 C39.4944579,59.8311773 39.4944579,57.3004122 37.9333642,55.7394517 Z" id="Shape"></path>
        </g>
    </g>
</svg>