<?xml version="1.0" encoding="UTF-8"?>
<svg width="70px" height="71px" viewBox="0 0 70 71" version="1.1" xmlns="http://www.w3.org/2000/svg" xmlns:xlink="http://www.w3.org/1999/xlink">
    <!-- Generator: Sketch 51 (57462) - http://www.bohemiancoding.com/sketch -->
    <title>cm3VolumeIconSVG</title>
    <desc>Created with Sketch.</desc>
    <defs></defs>
    <g id="cm3VolumeIcon" stroke="none" stroke-width="1" fill="none" fill-rule="evenodd">
        <g id="cube-copy" transform="translate(2.475513, 2.960204)" fill="#FFFFFF" fill-rule="nonzero" stroke="#FFFFFF" stroke-width="3">
            <path d="M7.06233333,11.3776667 C6.43433333,11.3776667 5.92466667,11.8873333 5.92466667,12.5153333 L5.92466667,38.3433333 C5.92466667,38.9713333 6.43433333,39.481 7.06233333,39.481 C7.69033333,39.481 8.2,38.9713333 8.2,38.3433333 L8.2,12.5156667 C8.2,11.8876667 7.69033333,11.3776667 7.06233333,11.3776667 Z" id="Shape"></path>
            <path d="M38.351,43.2356667 L12.9786667,43.2356667 C12.3506667,43.2356667 11.841,43.7453333 11.841,44.3733333 C11.841,45.0013333 12.3506667,45.511 12.9786667,45.511 L38.351,45.511 C38.9796667,45.511 39.4886667,45.0013333 39.4886667,44.3733333 C39.489,43.7453333 38.9793333,43.2356667 38.351,43.2356667 Z" id="Shape"></path>
            <path d="M44.609,11.3776667 C43.981,11.3776667 43.4713333,11.8873333 43.4713333,12.5153333 L43.4713333,38.3433333 C43.4713333,38.9713333 43.981,39.481 44.609,39.481 C45.237,39.481 45.7466667,38.9713333 45.7466667,38.3433333 L45.7466667,12.5156667 C45.7466667,11.8876667 45.237,11.3776667 44.609,11.3776667 Z" id="Shape"></path>
            <path d="M38.4643333,5.689 L12.9786667,5.689 C12.3506667,5.689 11.841,6.19866667 11.841,6.82666667 C11.841,7.45466667 12.3506667,7.96433333 12.9786667,7.96433333 L38.4643333,7.96433333 C39.093,7.96433333 39.602,7.45466667 39.602,6.82666667 C39.602,6.19866667 39.0923333,5.689 38.4643333,5.689 Z" id="Shape"></path>
            <path d="M7.06233333,0 C3.298,0 0.235666667,3.06233333 0.235666667,6.82666667 C0.235666667,10.591 3.298,13.6533333 7.06233333,13.6533333 C10.8266667,13.6533333 13.889,10.591 13.889,6.82666667 C13.889,3.06233333 10.8266667,0 7.06233333,0 Z M7.06233333,11.3776667 C4.553,11.3776667 2.51133333,9.336 2.51133333,6.82666667 C2.51133333,4.31733333 4.553,2.27566667 7.06233333,2.27566667 C9.57166667,2.27566667 11.6133333,4.31733333 11.6133333,6.82666667 C11.6133333,9.336 9.57166667,11.3776667 7.06233333,11.3776667 Z" id="Shape"></path>
            <path d="M44.609,0 C40.8446667,0 37.7823333,3.06233333 37.7823333,6.82666667 C37.7823333,10.591 40.8446667,13.6533333 44.609,13.6533333 C48.3733333,13.6533333 51.4356667,10.591 51.4356667,6.82666667 C51.4356667,3.06233333 48.3733333,0 44.609,0 Z M44.609,11.3776667 C42.0996667,11.3776667 40.058,9.336 40.058,6.82666667 C40.058,4.31733333 42.0996667,2.27566667 44.609,2.27566667 C47.1183333,2.27566667 49.16,4.31733333 49.16,6.82666667 C49.16,9.336 47.1183333,11.3776667 44.609,11.3776667 Z" id="Shape"></path>
            <path d="M7.06233333,37.5466667 C3.298,37.5466667 0.235666667,40.609 0.235666667,44.3733333 C0.235666667,48.1376667 3.298,51.2 7.06233333,51.2 C10.8266667,51.2 13.889,48.1376667 13.889,44.3733333 C13.889,40.609 10.8266667,37.5466667 7.06233333,37.5466667 Z M7.06233333,48.9243333 C4.553,48.9243333 2.51133333,46.8826667 2.51133333,44.3733333 C2.51133333,41.864 4.553,39.8223333 7.06233333,39.8223333 C9.57166667,39.8223333 11.6133333,41.864 11.6133333,44.3733333 C11.6133333,46.8826667 9.57166667,48.9243333 7.06233333,48.9243333 Z" id="Shape"></path>
            <path d="M44.609,37.5466667 C40.8446667,37.5466667 37.7823333,40.609 37.7823333,44.3733333 C37.7823333,48.1376667 40.8446667,51.2 44.609,51.2 C48.3733333,51.2 51.4356667,48.1376667 51.4356667,44.3733333 C51.4356667,40.609 48.3733333,37.5466667 44.609,37.5466667 Z M44.609,48.9243333 C42.0996667,48.9243333 40.058,46.8826667 40.058,44.3733333 C40.058,41.864 42.0996667,39.8223333 44.609,39.8223333 C47.1183333,39.8223333 49.16,41.864 49.16,44.3733333 C49.16,46.8826667 47.1183333,48.9243333 44.609,48.9243333 Z" id="Shape"></path>
            <path d="M20.7156667,26.6233333 C20.0876667,26.6233333 19.578,27.133 19.578,27.761 L19.578,53.2483333 C19.578,53.8763333 20.0876667,54.386 20.7156667,54.386 C21.3436667,54.386 21.8533333,53.877 21.8533333,53.2483333 L21.8533333,27.7613333 C21.8533333,27.133 21.3436667,26.6233333 20.7156667,26.6233333 Z" id="Shape"></path>
            <path d="M52.232,58.0266667 L26.7456667,58.0266667 C26.1176667,58.0266667 25.608,58.5363333 25.608,59.1643333 C25.608,59.7923333 26.1176667,60.302 26.7456667,60.302 L52.232,60.302 C52.8606667,60.302 53.3696667,59.7923333 53.3696667,59.1643333 C53.3696667,58.5363333 52.86,58.0266667 52.232,58.0266667 Z" id="Shape"></path>
            <path d="M58.2623333,26.5103333 C57.6343333,26.5103333 57.1246667,27.02 57.1246667,27.648 L57.1246667,53.1343333 C57.1246667,53.7623333 57.6343333,54.272 58.2623333,54.272 C58.8903333,54.272 59.4,53.7623333 59.4,53.1343333 L59.4,27.648 C59.4,27.02 58.8903333,26.5103333 58.2623333,26.5103333 Z" id="Shape"></path>
            <path d="M52.232,20.48 L26.7453333,20.48 C26.1173333,20.48 25.6076667,20.9896667 25.6076667,21.6176667 C25.6076667,22.2456667 26.1173333,22.7553333 26.7453333,22.7553333 L52.232,22.7553333 C52.86,22.7553333 53.3696667,22.2456667 53.3696667,21.6176667 C53.3696667,20.9896667 52.86,20.48 52.232,20.48 Z" id="Shape"></path>
            <path d="M20.7156667,14.791 C16.9513333,14.791 13.889,17.8533333 13.889,21.6176667 C13.889,25.382 16.9513333,28.4443333 20.7156667,28.4443333 C24.48,28.4443333 27.5423333,25.382 27.5423333,21.6176667 C27.5423333,17.8533333 24.48,14.791 20.7156667,14.791 Z M20.7156667,26.169 C18.2063333,26.169 16.1646667,24.1273333 16.1646667,21.618 C16.1646667,19.1086667 18.2063333,17.067 20.7156667,17.067 C23.225,17.067 25.2666667,19.1086667 25.2666667,21.618 C25.2666667,24.127 23.225,26.169 20.7156667,26.169 Z" id="Shape"></path>
            <path d="M58.2623333,14.791 C54.498,14.791 51.4356667,17.8533333 51.4356667,21.6176667 C51.4356667,25.382 54.498,28.4443333 58.2623333,28.4443333 C62.0266667,28.4443333 65.089,25.382 65.089,21.6176667 C65.089,17.8533333 62.0266667,14.791 58.2623333,14.791 Z M58.2623333,26.169 C55.753,26.169 53.7113333,24.1273333 53.7113333,21.618 C53.7113333,19.1086667 55.753,17.067 58.2623333,17.067 C60.7716667,17.067 62.8133333,19.1086667 62.8133333,21.618 C62.8133333,24.127 60.7716667,26.169 58.2623333,26.169 Z" id="Shape"></path>
            <path d="M20.7156667,52.3376667 C16.9513333,52.3376667 13.889,55.4 13.889,59.1643333 C13.889,62.9286667 16.9513333,65.991 20.7156667,65.991 C24.48,65.991 27.5423333,62.9286667 27.5423333,59.1643333 C27.5423333,55.4 24.48,52.3376667 20.7156667,52.3376667 Z M20.7156667,63.7156667 C18.2063333,63.7156667 16.1646667,61.674 16.1646667,59.1646667 C16.1646667,56.6553333 18.2063333,54.6136667 20.7156667,54.6136667 C23.225,54.6136667 25.2666667,56.6553333 25.2666667,59.1646667 C25.2666667,61.6736667 23.225,63.7156667 20.7156667,63.7156667 Z" id="Shape"></path>
            <path d="M58.2623333,52.3376667 C54.498,52.3376667 51.4356667,55.4 51.4356667,59.1643333 C51.4356667,62.9286667 54.498,65.991 58.2623333,65.991 C62.0266667,65.991 65.089,62.9286667 65.089,59.1643333 C65.089,55.4 62.0266667,52.3376667 58.2623333,52.3376667 Z M58.2623333,63.7156667 C55.753,63.7156667 53.7113333,61.674 53.7113333,59.1646667 C53.7113333,56.6553333 55.753,54.6136667 58.2623333,54.6136667 C60.7716667,54.6136667 62.8133333,56.6553333 62.8133333,59.1646667 C62.8133333,61.6736667 60.7716667,63.7156667 58.2623333,63.7156667 Z" id="Shape"></path>
            <path d="M54.5156667,53.809 L48.8266667,48.12 C48.383,47.6756667 47.6616667,47.6756667 47.218,48.12 C46.7736667,48.5643333 46.7736667,49.2846667 47.218,49.7286667 L52.907,55.4176667 C53.129,55.64 53.42,55.751 53.7113333,55.751 C54.0026667,55.751 54.294,55.64 54.5156667,55.4176667 C54.9596667,54.9733333 54.9596667,54.2533333 54.5156667,53.809 Z" id="Shape"></path>
            <path d="M16.969,53.809 L11.28,48.12 C10.8363333,47.6756667 10.115,47.6756667 9.67133333,48.12 C9.227,48.5643333 9.227,49.2846667 9.67133333,49.7286667 L15.3603333,55.4176667 C15.5823333,55.64 15.8733333,55.751 16.1646667,55.751 C16.456,55.751 16.7473333,55.64 16.969,55.4176667 C17.413,54.9733333 17.413,54.2533333 16.969,53.809 Z" id="Shape"></path>
            <path d="M54.5156667,16.2623333 L48.8266667,10.5733333 C48.383,10.129 47.6616667,10.129 47.218,10.5733333 C46.7736667,11.0176667 46.7736667,11.738 47.218,12.182 L52.907,17.871 C53.129,18.0933333 53.42,18.2043333 53.7113333,18.2043333 C54.0026667,18.2043333 54.294,18.0933333 54.5156667,17.871 C54.9596667,17.4266667 54.9596667,16.7066667 54.5156667,16.2623333 Z" id="Shape"></path>
            <path d="M16.969,16.2623333 L11.28,10.5733333 C10.8363333,10.129 10.115,10.129 9.67133333,10.5733333 C9.227,11.0176667 9.227,11.738 9.67133333,12.182 L15.36,17.871 C15.582,18.0933333 15.873,18.2043333 16.1643333,18.2043333 C16.4556667,18.2043333 16.747,18.0933333 16.9686667,17.871 C17.413,17.4266667 17.413,16.7066667 16.969,16.2623333 Z" id="Shape"></path>
        </g>
    </g>
</svg>