<svg width="18" height="18" viewBox="0 0 18 18" fill="none" xmlns="http://www.w3.org/2000/svg">
<path fill-rule="evenodd" clip-rule="evenodd" d="M0.25 9C0.25 4.16751 4.16751 0.25 9 0.25C11.3206 0.25 13.5462 1.17187 15.1872 2.81282C16.8281 4.45376 17.75 6.67936 17.75 9C17.75 13.8325 13.8325 17.75 9 17.75C4.16751 17.75 0.25 13.8325 0.25 9ZM9.125 3.625C7.39911 3.625 6 5.02411 6 6.75C6 8.47589 7.39911 9.875 9.125 9.875C10.8509 9.875 12.25 8.47589 12.25 6.75C12.25 5.02411 10.8509 3.625 9.125 3.625ZM9.125 8.625C8.08947 8.625 7.25 7.78553 7.25 6.75C7.25 5.71447 8.08947 4.875 9.125 4.875C10.1605 4.875 11 5.71447 11 6.75C11 7.78553 10.1605 8.625 9.125 8.625ZM5.25 15.4875V14.2375C5.19289 13.1393 6.02782 12.1986 7.125 12.125H10.875C11.9747 12.1986 12.8107 13.1432 12.75 14.2437V15.4937C10.4323 16.8439 7.56771 16.8439 5.25 15.4937V15.4875ZM14 14.1938V14.5625C16.3178 12.4894 17.1159 9.20109 16.0063 6.29616C14.8967 3.39124 12.1096 1.47233 9 1.47233C5.89038 1.47233 3.10329 3.39124 1.99371 6.29616C0.884126 9.20109 1.68223 12.4894 4 14.5625V14.1938C3.96117 12.42 5.35208 10.9428 7.125 10.875H10.875C12.6464 10.9461 14.0355 12.4213 14 14.1938Z" fill="#161616"/>
</svg>
